<svg id="Layer_1" data-name="Layer 1" xmlns="http://www.w3.org/2000/svg" viewBox="0 0 92.25 88.58"><defs><style>.cls-1{fill:#231f20;}</style></defs><path class="cls-1" d="M67.74,15.59V8.79a2.49,2.49,0,1,0-5,0v6.67H27.54V8.79a2.49,2.49,0,1,0-5,0V16a15.85,15.85,0,0,0-12,15.35V66.43A15.87,15.87,0,0,0,26.42,82.28H65.84A15.87,15.87,0,0,0,81.68,66.43V31.31A15.86,15.86,0,0,0,67.74,15.59Zm9,50.84A10.89,10.89,0,0,1,65.84,77.31H26.42A10.89,10.89,0,0,1,15.54,66.43V31.31a10.89,10.89,0,0,1,7-10.16v7.58a2.49,2.49,0,0,0,5,0v-8.3H62.77v8.3a2.49,2.49,0,0,0,5,0V20.61a10.89,10.89,0,0,1,9,10.7Z"/><path class="cls-1" d="M66.88,37H25.05a2.49,2.49,0,0,0,0,5H66.88a2.49,2.49,0,0,0,0-5Z"/></svg>