<svg id="Layer_1" data-name="Layer 1" xmlns="http://www.w3.org/2000/svg" viewBox="0 0 92.25 88.58"><defs><style>.cls-1{fill:#231f20;}</style></defs><path class="cls-1" d="M71.87,6.7H20.38A10.83,10.83,0,0,0,9.56,17.52V71.06A10.83,10.83,0,0,0,20.38,81.88H71.87A10.83,10.83,0,0,0,82.69,71.06V17.52A10.83,10.83,0,0,0,71.87,6.7ZM14.66,17.52a5.73,5.73,0,0,1,5.72-5.72H63v7.7a5.72,5.72,0,0,1-5.71,5.72H44.53l-.58.33A13.1,13.1,0,0,0,39,30.18l-.07.11-.15.29c-.09.17-.19.35-.27.53s-.21.49-.3.74c0,.08-.07.15-.1.24-1.54,4.47.46,8.79,1.51,10.58l0,0c.25.43.44.7.47.75l.12.15.26.33c.22.28.44.58.66.89l.15.2c.19.26.37.54.56.81s.21.31.31.48.29.46.43.69l.39.64.39.7.36.69c.12.24.24.48.35.73l.3.69c.1.24.2.48.28.72s.17.52.25.78.12.4.17.59a9.12,9.12,0,0,1,.21,1.31h0a3.55,3.55,0,0,1,0,.64c0,.12-.06.25-.09.38s0,.21-.07.32-.12.34-.19.51l-.09.24c-.09.19-.19.38-.29.58l-.12.23c-.11.19-.24.38-.36.58l-.17.26-.41.57-.24.32-.45.53-.32.38-.47.5-.33.34a6.52,6.52,0,0,1-4.62,1.87H14.66ZM77.59,71.06a5.72,5.72,0,0,1-5.72,5.72H20.38a5.73,5.73,0,0,1-5.72-5.72V67.25H37.47a10.77,10.77,0,0,0,7.61-3.13c.07-.07.12-.14.19-.2l.11-.1.51-.55c.21-.23.43-.46.63-.69L47,62c.21-.25.42-.5.61-.76s.25-.35.37-.52.39-.54.55-.81.19-.32.28-.48.32-.56.46-.83.14-.32.21-.48.24-.54.34-.81.1-.34.16-.51.16-.51.22-.75.07-.42.1-.63.08-.41.09-.62a8.28,8.28,0,0,0,0-1.22h0c0-.34-.06-.69-.11-1s-.09-.46-.13-.69,0-.21-.07-.32C49,46.71,45.51,42,44.44,40.68c-.14-.18-.26-.36-.38-.55l-.13-.23-.13-.25-.2-.41L43.48,39l-.21-.53c0-.09-.07-.18-.11-.28L43,37.6l-.09-.36c0-.18-.08-.38-.11-.57s-.05-.3-.06-.45,0-.35,0-.53,0-.36,0-.54a4.1,4.1,0,0,1,.06-.49,5.72,5.72,0,0,1,.11-.57,5.1,5.1,0,0,1,.19-.55q.11-.27.24-.54c.06-.12.15-.24.22-.36a5.44,5.44,0,0,1,4.59-2.32H59.18a8.88,8.88,0,0,0,8.88-8.87V11.8h3.81a5.72,5.72,0,0,1,5.72,5.72Z"/></svg>