<svg id="Layer_1" data-name="Layer 1" xmlns="http://www.w3.org/2000/svg" viewBox="0 0 92.25 88.58"><defs><style>.cls-1{fill:#231f20;}</style></defs><path class="cls-1" d="M45.58,45.77a13,13,0,1,0-13-13A13,13,0,0,0,45.58,45.77Zm0-20.82a7.81,7.81,0,1,1-7.81,7.81A7.82,7.82,0,0,1,45.58,25Z"/><path class="cls-1" d="M81.76,72.38,71.13,40.61h0a26.71,26.71,0,1,0-52.25-7.85,26.35,26.35,0,0,0,.67,5.81L10.36,72.83a7.69,7.69,0,0,0,7.44,9.7H74.45a7.7,7.7,0,0,0,7.31-10.15ZM31.19,16.76a21.36,21.36,0,0,1,16.74-5.4,21.66,21.66,0,0,1,19,18.29,21.4,21.4,0,0,1-2.65,13.8l-.08.15a21.82,21.82,0,0,1-2.95,3.93L47.81,65.38a1.2,1.2,0,0,1-1,.49,1.17,1.17,0,0,1-1-.43L32.5,49.9l-.35-.34a21.34,21.34,0,0,1-5.17-6l0,0,0,0a21.48,21.48,0,0,1,4.25-26.73ZM76.49,76.3a2.48,2.48,0,0,1-2,1H17.8a2.52,2.52,0,0,1-2-1,2.48,2.48,0,0,1-.43-2.18L22.76,46.6a26.82,26.82,0,0,0,6,6.86L41.93,68.83a6.43,6.43,0,0,0,4.88,2.24H47A6.4,6.4,0,0,0,52,68.49L65.08,51a26.22,26.22,0,0,0,2.82-3.66L76.84,74A2.49,2.49,0,0,1,76.49,76.3Z"/></svg>