<svg id="Layer_1" data-name="Layer 1" xmlns="http://www.w3.org/2000/svg" viewBox="0 0 92.25 88.58"><defs><style>.cls-1{fill:#231f20;}</style></defs><path class="cls-1" d="M73.67,82.45h-8A10.51,10.51,0,0,1,55.19,72V58.29l-13.56-.1-.5,14.06a10.46,10.46,0,0,1-10.5,10.2h-12A10.51,10.51,0,0,1,8.09,72V38.34A7.87,7.87,0,0,1,11,32.26L39.63,8.55a10.46,10.46,0,0,1,13-.28L80.84,29.56a8.42,8.42,0,0,1,3.33,6.68V72A10.51,10.51,0,0,1,73.67,82.45ZM41.63,51H55.09a7.29,7.29,0,0,1,7.28,7.29V72a3.32,3.32,0,0,0,3.32,3.31h8A3.31,3.31,0,0,0,77,72V36.24a1.21,1.21,0,0,0-.47-1L48.32,14a3.31,3.31,0,0,0-4.11.09L15.53,37.8a.7.7,0,0,0-.26.54V72a3.32,3.32,0,0,0,3.31,3.31H30.63A3.29,3.29,0,0,0,33.94,72l.41-14A7.25,7.25,0,0,1,41.63,51Z"/></svg>