<svg id="Layer_1" data-name="Layer 1" xmlns="http://www.w3.org/2000/svg" viewBox="0 0 92.25 88.58"><defs><style>.cls-1{fill:#231f20;}</style></defs><path class="cls-1" d="M46.13,40.94A15.55,15.55,0,1,0,30.58,25.4,15.56,15.56,0,0,0,46.13,40.94Zm0-26.11A10.57,10.57,0,1,1,35.56,25.4,10.58,10.58,0,0,1,46.13,14.83Z"/><path class="cls-1" d="M46.13,50.08c-16.85,0-34.76,5-34.76,14.32S29.28,78.73,46.13,78.73s34.76-5,34.76-14.33S63,50.08,46.13,50.08Zm0,23.68c-18.19,0-29.79-5.54-29.79-9.36s11.6-9.35,29.79-9.35,29.79,5.54,29.79,9.35S64.31,73.76,46.13,73.76Z"/></svg>